<?xml version="1.0" standalone="no"?>
<!DOCTYPE svg PUBLIC "-//W3C//DTD SVG 20010904//EN"
 "http://www.w3.org/TR/2001/REC-SVG-20010904/DTD/svg10.dtd">
<svg version="1.0" xmlns="http://www.w3.org/2000/svg"
 width="4096.000000pt" height="4096.000000pt" viewBox="0 0 4096.000000 4096.000000"
 preserveAspectRatio="xMidYMid meet">
<metadata>
Created by potrace 1.14, written by Peter Selinger 2001-2017
</metadata>
<g transform="translate(0.000000,4096.000000) scale(0.100000,-0.100000)"
fill="#000000" stroke="none">
<path d="M32798 38485 c-2 -2 -25 -6 -51 -9 -328 -44 -635 -179 -887 -392 -65
-54 -1068 -1057 -4961 -4959 -438 -440 -2128 -2127 -3754 -3750 -1703 -1699
-2985 -2986 -3024 -3035 -87 -110 -128 -173 -186 -290 -51 -100 -52 -104 -86
-190 -28 -75 -75 -262 -84 -335 -4 -33 -9 -71 -11 -85 -4 -31 -11 -389 -19
-980 -6 -486 -13 -993 -20 -1495 -20 -1462 -21 -1637 -12 -1740 17 -192 79
-410 166 -589 51 -104 151 -262 206 -326 52 -60 159 -174 177 -188 9 -7 23
-18 30 -25 31 -29 109 -87 181 -136 206 -138 474 -239 712 -267 28 -3 61 -8
75 -10 32 -5 323 -4 695 1 387 5 1091 14 1565 20 212 3 540 7 730 10 190 3
523 7 740 10 217 3 413 7 435 10 22 2 65 7 95 10 30 4 57 8 60 10 3 2 25 6 48
10 66 9 227 59 323 100 87 36 252 126 287 156 11 9 24 18 30 20 6 2 47 33 91
69 113 92 11668 11655 11759 11766 65 80 148 209 203 317 44 86 123 299 136
367 2 14 8 43 13 65 9 41 20 113 26 175 4 44 4 287 -1 320 -2 14 -6 45 -9 70
-8 67 -32 176 -55 255 -17 62 -28 90 -60 170 -48 117 -155 299 -239 405 -54
67 -3976 3997 -4046 4054 -22 17 -48 39 -59 49 -40 39 -246 165 -335 206 -89
41 -273 105 -329 115 -14 3 -49 10 -77 15 -28 6 -67 13 -86 16 -35 7 -386 15
-392 10z m873 -4826 l701 -702 -771 -771 -771 -771 -705 706 -706 705 767 767
c421 422 770 767 775 767 4 0 324 -316 710 -701z m-3954 -3962 l703 -703
-2930 -2929 c-1612 -1612 -2932 -2931 -2933 -2932 -2 -1 -828 -12 -1237 -16
l-185 -2 3 350 c1 193 4 467 6 610 3 143 5 310 5 371 l1 110 1118 1117 c2057
2055 4737 4726 4742 4727 3 0 321 -316 707 -703z"/>
<path d="M13017 35004 c-1 -1 -78 -5 -172 -9 -198 -8 -199 -8 -436 -30 -210
-20 -499 -66 -757 -121 -90 -19 -167 -36 -171 -39 -4 -2 -23 -7 -42 -10 -36
-6 -331 -86 -409 -111 -252 -80 -634 -225 -832 -315 -144 -66 -457 -224 -550
-278 -276 -160 -315 -184 -503 -310 -196 -131 -483 -347 -625 -470 -14 -12
-50 -43 -80 -69 -186 -159 -458 -426 -645 -634 -55 -60 -76 -85 -150 -173 -27
-33 -52 -62 -55 -65 -9 -7 -221 -282 -240 -310 -8 -12 -29 -41 -46 -64 -91
-123 -304 -449 -304 -466 0 -6 -4 -10 -10 -10 -5 0 -10 -5 -10 -10 0 -6 -11
-29 -26 -51 -25 -41 -34 -56 -94 -164 -18 -33 -42 -76 -53 -95 -11 -19 -53
-101 -93 -181 -186 -372 -308 -681 -457 -1154 -27 -84 -116 -422 -122 -465 -3
-14 -11 -54 -19 -90 -31 -136 -56 -276 -81 -450 -9 -58 -18 -116 -20 -130 -2
-14 -7 -52 -10 -85 -3 -33 -7 -73 -9 -90 -2 -16 -7 -68 -11 -115 -4 -47 -8
-101 -10 -120 -16 -158 -18 -1284 -18 -7840 0 -6580 2 -7661 17 -7835 2 -22 7
-76 11 -120 4 -44 8 -93 10 -110 9 -90 17 -158 20 -173 1 -9 6 -42 10 -72 12
-96 55 -351 76 -450 11 -52 23 -106 25 -120 6 -35 66 -275 98 -394 46 -167
189 -590 241 -711 7 -16 36 -86 65 -155 107 -257 320 -673 460 -900 29 -47 58
-94 64 -105 54 -98 315 -466 465 -655 572 -723 1339 -1375 2136 -1815 117 -65
208 -114 240 -129 17 -7 91 -43 165 -79 118 -56 184 -85 400 -177 465 -197
1195 -391 1705 -455 28 -3 59 -8 70 -10 11 -2 54 -7 94 -10 41 -4 77 -8 80
-10 4 -1 51 -6 106 -10 55 -4 116 -8 135 -10 19 -2 105 -7 190 -11 206 -10
15080 -10 15280 0 85 4 171 9 190 11 19 1 78 6 130 10 52 4 104 9 115 10 11 1
47 6 80 9 33 4 76 9 95 11 19 3 53 8 75 10 22 3 51 8 65 10 14 3 43 7 65 11
67 9 256 44 330 60 39 9 82 18 97 21 21 3 239 57 358 88 246 64 666 213 965
343 597 259 1242 658 1726 1067 19 16 49 41 65 55 128 107 327 294 474 445
141 144 158 163 230 245 36 41 68 77 71 80 12 10 166 197 194 235 17 22 33 42
36 45 3 3 45 59 94 125 49 66 100 136 115 155 47 63 230 344 285 438 50 85
108 185 129 222 39 68 227 445 265 530 18 41 42 95 53 120 162 361 356 981
434 1380 39 204 37 189 64 370 22 140 27 180 36 260 3 30 7 66 9 80 2 14 7 66
10 115 4 50 9 104 11 120 2 17 7 111 10 210 10 241 10 7656 0 7765 -33 404
-204 773 -489 1062 -274 276 -628 447 -1017 492 -107 13 -317 14 -385 2 -16
-3 -48 -7 -70 -11 -23 -3 -52 -8 -65 -11 -14 -3 -36 -7 -48 -10 -220 -45 -467
-161 -667 -312 -33 -25 -112 -98 -176 -162 -163 -166 -284 -350 -369 -565 -33
-84 -86 -267 -95 -332 -3 -23 -9 -57 -12 -75 -7 -33 -10 -1160 -16 -5463 -2
-1309 -6 -2398 -10 -2420 -3 -22 -9 -62 -12 -90 -17 -157 -49 -334 -84 -470
-5 -22 -15 -60 -21 -85 -6 -25 -31 -106 -55 -180 -162 -503 -427 -963 -778
-1355 -431 -480 -958 -834 -1562 -1049 -141 -51 -370 -115 -465 -132 -14 -2
-45 -9 -70 -14 -65 -14 -157 -29 -215 -35 -27 -4 -60 -8 -73 -10 -12 -2 -64
-7 -115 -12 -119 -10 -15208 -11 -15307 0 -88 9 -262 33 -340 47 -229 41 -448
103 -695 197 -201 77 -450 201 -610 302 -22 14 -48 31 -57 36 -78 46 -324 228
-413 306 -240 210 -418 401 -596 641 -237 319 -418 668 -548 1056 -38 112 -97
330 -107 392 -2 14 -9 45 -14 70 -16 74 -28 155 -45 290 -2 14 -7 66 -12 115
-10 117 -11 15173 0 15285 4 47 10 105 12 130 4 42 22 158 31 205 3 11 7 36
10 55 11 67 36 176 70 300 320 1162 1183 2108 2314 2537 267 102 601 184 865
213 55 6 114 14 130 17 17 4 1061 8 2320 10 4473 6 5540 9 5560 15 11 3 42 9
68 12 142 21 314 77 472 154 210 102 460 306 598 489 146 193 259 432 312 664
28 126 42 258 40 397 -3 168 -16 259 -62 432 -26 101 -90 266 -131 340 -14 25
-30 54 -36 65 -6 10 -35 55 -65 100 -168 251 -413 459 -696 590 -83 39 -246
97 -305 109 -14 3 -57 12 -95 20 -39 8 -111 18 -160 22 -71 6 -7612 13 -7618
8z"/>
</g>
</svg>
